# Blender v2.90.1 OBJ File: ''
# www.blender.org
mtllib stickholder.mtl
o Cube_Cube.002
v -0.276792 -0.335267 -0.082874
v -0.276792 1.761986 -0.082874
v -0.332989 -0.408632 -0.222136
v -0.332989 1.835351 -0.222136
v 0.458938 -0.335267 -0.082874
v 0.458938 1.761986 -0.082874
v 0.515134 -0.408632 -0.222136
v 0.515134 1.835351 -0.222136
v -0.332989 -0.408632 -0.082874
v -0.332989 1.835351 -0.082874
v 0.515134 1.835351 -0.082874
v 0.515134 -0.408632 -0.082874
v -0.276792 -0.335267 -0.153992
v -0.276792 1.761986 -0.153992
v 0.458938 1.761986 -0.153992
v 0.458938 -0.335267 -0.153992
vt 0.375000 0.000000
vt 0.625000 0.000000
vt 0.625000 0.250000
vt 0.375000 0.250000
vt 0.625000 0.500000
vt 0.375000 0.500000
vt 0.625000 0.750000
vt 0.375000 0.750000
vt 0.383173 0.758173
vt 0.616826 0.758173
vt 0.616826 0.758173
vt 0.383173 0.758173
vt 0.125000 0.500000
vt 0.125000 0.750000
vt 0.875000 0.500000
vt 0.875000 0.750000
vt 0.383173 0.991826
vt 0.616826 0.991826
vt 0.625000 1.000000
vt 0.375000 1.000000
vt 0.616826 0.991826
vt 0.383173 0.991826
vn -1.0000 0.0000 0.0000
vn 0.0000 0.0000 -1.0000
vn 1.0000 0.0000 0.0000
vn 0.0000 -1.0000 0.0000
vn 0.0000 1.0000 0.0000
vn 0.0000 0.0000 1.0000
usemtl None
s off
f 9/1/1 10/2/1 4/3/1 3/4/1
f 3/4/2 4/3/2 8/5/2 7/6/2
f 7/6/3 8/5/3 11/7/3 12/8/3
f 5/9/1 6/10/1 15/11/1 16/12/1
f 3/13/4 7/6/4 12/8/4 9/14/4
f 8/5/5 4/15/5 10/16/5 11/7/5
f 1/17/6 2/18/6 10/19/6 9/20/6
f 6/10/6 5/9/6 12/8/6 11/7/6
f 5/9/6 1/17/6 9/20/6 12/8/6
f 2/18/6 6/10/6 11/7/6 10/19/6
f 16/12/6 15/11/6 14/21/6 13/22/6
f 1/17/5 5/9/5 16/12/5 13/22/5
f 2/18/3 1/17/3 13/22/3 14/21/3
f 6/10/4 2/18/4 14/21/4 15/11/4
